# xmcd
#
# Track frame offsets:
#  150
#  11146
#  22231
#  32381
#  43983
#  53203
#  63943
#  74534
#  87405
#  99509
#  113416
#  124228
#  135741
#  146149
#  157421
#  167155
#  177964
#  191458
#
# Disc length: 2712 seconds
#
# Revision: 0
# Processed by: cddbd v1.4PL0 Copyright (c) Steve Scherf et al.
# Submitted via: AltoMP3_Maker 3.0
#
DISCID=090a9612
DTITLE=Satellite V - Groove Juice
DYEAR=1900
DGENRE=
TTITLE0=Speed Limit Daddy
TTITLE1=Satellite Boogie
TTITLE2=Hillbilly Nitro
TTITLE3=Luther Plays The Boogie
TTITLE4=Chicken House
TTITLE5=Day At Dizzyland
TTITLE6=Sure To Fall
TTITLE7=Crazy Crazy Lovin'
TTITLE8=Mullet Man Bop
TTITLE9=Tube In A Box
TTITLE10=Pelaw Main
TTITLE11=Hop To The Boogie
TTITLE12=The Woman I Need
TTITLE13=Eatin' Brains Is Bad
TTITLE14=My Baby Don't rock
TTITLE15=Choctaw Boogie
TTITLE16=Real Gone Jive
TTITLE17=Beatles Miss You Johnny
EXTD=
EXTT0=
EXTT1=
EXTT2=
EXTT3=
EXTT4=
EXTT5=
EXTT6=
EXTT7=
EXTT8=
EXTT9=
EXTT10=
EXTT11=
EXTT12=
EXTT13=
EXTT14=
EXTT15=
EXTT16=
EXTT17=
PLAYORDER=
